<svg width="3030" height="600" viewBox="0 0 3030 600" fill="none" xmlns="http://www.w3.org/2000/svg">
<path d="M0 50C0 22.3858 22.3858 0 50 0H400C510.457 0 600 89.5431 600 200V400C600 510.457 510.457 600 400 600H202C90.4385 600 0 509.562 0 398V50Z" fill="#F5A281"/>
<path d="M150.741 474.68V127.08H272.621C308.995 127.08 340.381 134.413 366.781 149.08C393.181 163.453 413.275 183.547 427.061 209.36C441.141 235.173 448.181 264.507 448.181 297.36C448.181 330.507 441.581 360.573 428.381 387.56C415.475 414.253 395.821 435.373 369.421 450.92C343.315 466.76 311.048 474.68 272.621 474.68H150.741ZM214.981 183.4V418.36H272.621C295.795 418.36 315.741 413.227 332.461 402.96C349.181 392.693 361.941 378.467 370.741 360.28C379.541 341.8 383.941 320.827 383.941 297.36C383.941 261.28 373.675 233.267 353.141 213.32C332.608 193.373 303.861 183.4 266.901 183.4H214.981ZM474.759 463.68C467.079 463.68 460.572 461.013 455.239 455.68C450.119 450.56 447.559 444.267 447.559 436.8C447.559 429.333 450.119 423.04 455.239 417.92C460.572 412.587 467.079 409.92 474.759 409.92C482.439 409.92 488.839 412.587 493.959 417.92C499.292 423.04 501.959 429.333 501.959 436.8C501.959 444.267 499.292 450.56 493.959 455.68C488.839 461.013 482.439 463.68 474.759 463.68Z" fill="white"/>
<path d="M1064.81 235.32V287.68H765.614V96.72H1063.93V149.08H826.334V235.32H1064.81ZM871.654 375.68V507.68H810.934V375.68H729.094V323.32H1100.45V375.68H1018.61V507.68H957.894V375.68H871.654ZM1508.76 84.4V502.4H1448.04V84.4H1508.76ZM1159.4 100.68H1379.4V153.04H1220.12V239.28H1361.36V291.2H1220.12V384.92H1238.16C1265.44 384.92 1293.01 383.747 1320.88 381.4C1348.74 379.053 1372.65 375.68 1392.6 371.28V422.76C1347.72 433.32 1287.73 438.6 1212.64 438.6C1200.61 438.6 1182.86 438.307 1159.4 437.72V100.68ZM1950.06 84.4V502.4H1890.22V84.4H1950.06ZM1857.66 87.92V499.76H1798.7V290.32H1747.66V439.04H1572.54V108.6H1747.66V237.96H1798.7V87.92H1857.66ZM1688.26 160.96H1631.94V386.68H1688.26V160.96ZM2353.52 84.4V502.4H2292.36V84.4H2353.52ZM2125.16 360.72C2100.23 360.72 2078.23 355.147 2059.16 344C2040.39 332.853 2025.72 317.747 2015.16 298.68C2004.9 279.613 1999.76 258.493 1999.76 235.32C1999.76 212.147 2004.9 191.027 2015.16 171.96C2025.72 152.893 2040.39 137.787 2059.16 126.64C2078.23 115.493 2100.23 109.92 2125.16 109.92C2150.1 109.92 2171.95 115.493 2190.72 126.64C2209.79 137.787 2224.46 152.893 2234.72 171.96C2245.28 191.027 2250.56 212.147 2250.56 235.32C2250.56 258.493 2245.28 279.613 2234.72 298.68C2224.46 317.747 2209.79 332.853 2190.72 344C2171.95 355.147 2150.1 360.72 2125.16 360.72ZM2125.16 308.36C2144.52 308.36 2160.22 301.613 2172.24 288.12C2184.27 274.333 2190.28 256.733 2190.28 235.32C2190.28 213.32 2184.27 195.72 2172.24 182.52C2160.51 169.027 2144.82 162.28 2125.16 162.28C2105.8 162.28 2090.11 169.173 2078.08 182.96C2066.06 196.453 2060.04 213.907 2060.04 235.32C2060.04 256.733 2066.06 274.333 2078.08 288.12C2090.11 301.613 2105.8 308.36 2125.16 308.36ZM2758.31 306.16V358.52H2452.07V106.84H2756.55V159.2H2512.79V206.28H2746.87V258.2H2512.79V306.16H2758.31ZM2789.99 421V473.8H2418.63V421H2789.99ZM2885.89 475.56C2875.33 475.56 2866.38 471.893 2859.05 464.56C2852.01 457.52 2848.49 448.867 2848.49 438.6C2848.49 428.333 2852.01 419.68 2859.05 412.64C2866.38 405.307 2875.33 401.64 2885.89 401.64C2896.45 401.64 2905.25 405.307 2912.29 412.64C2919.62 419.68 2923.29 428.333 2923.29 438.6C2923.29 448.867 2919.62 457.52 2912.29 464.56C2905.25 471.893 2896.45 475.56 2885.89 475.56Z" fill="#2B2B2B"/>
</svg>
