<svg width="600" height="600" viewBox="0 0 600 600" fill="none" xmlns="http://www.w3.org/2000/svg">
<path d="M0 50C0 22.3858 22.3858 0 50 0H400C510.457 0 600 89.5431 600 200V400C600 510.457 510.457 600 400 600H202C90.4385 600 0 509.562 0 398V50Z" fill="#F5A281"/>
<path d="M150.741 474.68V127.08H272.621C308.995 127.08 340.381 134.413 366.781 149.08C393.181 163.453 413.275 183.547 427.061 209.36C441.141 235.173 448.181 264.507 448.181 297.36C448.181 330.507 441.581 360.573 428.381 387.56C415.475 414.253 395.821 435.373 369.421 450.92C343.315 466.76 311.048 474.68 272.621 474.68H150.741ZM214.981 183.4V418.36H272.621C295.795 418.36 315.741 413.227 332.461 402.96C349.181 392.693 361.941 378.467 370.741 360.28C379.541 341.8 383.941 320.827 383.941 297.36C383.941 261.28 373.675 233.267 353.141 213.32C332.608 193.373 303.861 183.4 266.901 183.4H214.981ZM474.759 463.68C467.079 463.68 460.572 461.013 455.239 455.68C450.119 450.56 447.559 444.267 447.559 436.8C447.559 429.333 450.119 423.04 455.239 417.92C460.572 412.587 467.079 409.92 474.759 409.92C482.439 409.92 488.839 412.587 493.959 417.92C499.292 423.04 501.959 429.333 501.959 436.8C501.959 444.267 499.292 450.56 493.959 455.68C488.839 461.013 482.439 463.68 474.759 463.68Z" fill="white"/>
</svg>
